# xmcd
#
# Track frame offsets:
#	150
#	16047
#	28493
#	40583
#	50483
#	67197
#	81516
#	98229
#	115170
#	130433
#	146628
#	159873
#	170772
#	182661
#	195647
#	209782
#	224584
#	236603
#	250585
#	263073
#	273503
#	286225
#	298446
#	312949
#	324209
#	341749
#
# Disc length: 4738 seconds
#
# Revision: 1
# Processed by: cddbd v1.5.2PL0 Copyright (c) Steve Scherf et al.
# Submitted via: EZCDAudioConverter 7.0.6.1
#
DISCID=9a12801a
DTITLE=Various Artist - Looking At The Pictures In The Sky 3/3
DYEAR=2017
DGENRE=
TTITLE0=Jason Crest - Hold On
TTITLE1=Honeybus - Girl Of Independent Means
TTITLE2=Rhubarb Rhubarb - Rainmaker
TTITLE3=The Mirage - Hello Enid
TTITLE4=Episode Six - Lucky Sunday
TTITLE5=Paradox - What's The Rush, Dillbury?
TTITLE6=The Bystanders - Cave Of Clear Light
TTITLE7=Skip Bifferty  - Round And Round
TTITLE8=Motivation - Come On Down
TTITLE9=Blonde On Blonde - Country Life
TTITLE10=Cats Pyjamas - Virginia Water
TTITLE11=Jethro Toe (Tull) - Aeroplane
TTITLE12=Timon - Rambling Boy
TTITLE13=Ice - Ice Man
TTITLE14=The U (Don't) No Who - Now And Again Rebecca
TTITLE15=The Writing On The Wall - Felicity Jane
TTITLE16=Focal Point - Sycamore Sid
TTITLE17=Circus - Do You Dream
TTITLE18=Brass Tacks - Maxwell Ferguson
TTITLE19=Barbara Ruskin - Pawnbroker [Demo]
TTITLE20=Orange Bicycle - Soft Winds
TTITLE21=Coconut Mushroom - Without You
TTITLE22=Peter Thorogood - Haunted
TTITLE23=Boeing Duveen and The Beautiful Soup - Which Dreamed It
TTITLE24=Turnstyle - Trot
TTITLE25=Orange Seaweed - Pictures In The Sky
EXTD=
EXTT0=
EXTT1=
EXTT2=
EXTT3=
EXTT4=
EXTT5=
EXTT6=
EXTT7=
EXTT8=
EXTT9=
EXTT10=
EXTT11=
EXTT12=
EXTT13=
EXTT14=
EXTT15=
EXTT16=
EXTT17=
EXTT18=
EXTT19=
EXTT20=
EXTT21=
EXTT22=
EXTT23=
EXTT24=
EXTT25=
PLAYORDER=
